<svg width="32" height="32" viewBox="0 0 32 32" fill="none" xmlns="http://www.w3.org/2000/svg">
<path d="M31.5 16C31.5 24.5604 24.5604 31.5 16 31.5C7.43959 31.5 0.5 24.5604 0.5 16C0.5 7.43959 7.43959 0.5 16 0.5C24.5604 0.5 31.5 7.43959 31.5 16Z" fill="white" stroke="#E0E0E0"/>
<path d="M16.268 25C16.268 25 23.536 22.5272 23.536 13.4455V10.1764C23.536 9.81811 23.2574 9.53058 22.9079 9.50846C21.5896 9.4421 18.4621 9.17668 16.268 8C14.0783 9.17668 10.9464 9.4421 9.62816 9.50403C9.27869 9.53058 9 9.81811 9 10.1764V13.4455C9 22.5272 16.268 25 16.268 25Z" fill="#62ABF4"/>
</svg>
