<svg width="24" height="24" viewBox="0 0 24 24" fill="none" xmlns="http://www.w3.org/2000/svg">
<path d="M12.4825 24C12.4825 24 22.9651 20.5069 22.9651 7.68542V3.07071C22.9651 2.56793 22.5653 2.16049 22.0609 2.12556C20.1569 2.03859 15.6441 1.6586 12.4825 0C9.32096 1.6586 4.80823 2.03859 2.90422 2.12556C2.39977 2.16049 2 2.56793 2 3.07071V7.68542C2 20.5069 12.4825 24 12.4825 24Z" fill="#62ABF4"/>
<path d="M14.4634 9.88395C14.4534 11.2196 12.3356 11.0489 11.6539 11.0442L11.6488 8.68358C12.3304 8.68821 14.4734 8.49074 14.4634 9.88395ZM14.9986 13.5599C14.9888 15.028 12.4458 14.8434 11.6273 14.8384L11.6229 12.2357C12.4418 12.2414 15.0097 12.0289 14.9986 13.5599ZM16.7186 9.37101C16.5911 7.96995 15.3661 7.49194 13.8084 7.34758L13.8158 5.39044L12.6082 5.39685L12.6125 7.28805C12.2949 7.28591 11.9526 7.28965 11.6302 7.29393L11.6315 5.37761L10.4145 5.38188L10.4227 7.32351C10.1611 7.32708 7.98839 7.33207 7.98839 7.33207L7.9862 8.57308L9.5325 8.57076L9.52758 14.8131L8.17444 14.8204L8.16351 16.243C8.16351 16.243 10.0761 16.2348 10.3586 16.2385L10.363 18.203L11.5592 18.2092L11.5652 16.2678C11.8964 16.2769 12.2169 16.2817 12.5299 16.2836L12.5253 18.2183L13.7423 18.2178L13.7376 16.2655C15.7685 16.1655 17.1932 15.6746 17.383 13.8093C17.5363 12.3073 16.8192 11.6317 15.6687 11.3527C16.3712 11.0084 16.8136 10.3964 16.7186 9.37101Z" fill="white"/>
</svg>
