<svg width="24" height="24" viewBox="0 0 24 24" fill="none" xmlns="http://www.w3.org/2000/svg">
<path d="M16.125 10.625H13.375V7.875C13.375 7.11875 12.7563 6.5 12 6.5C11.2437 6.5 10.625 7.11875 10.625 7.875V10.625H7.875C7.11875 10.625 6.5 11.2437 6.5 12C6.5 12.7563 7.11875 13.375 7.875 13.375H10.625V16.125C10.625 16.8813 11.2437 17.5 12 17.5C12.7563 17.5 13.375 16.8813 13.375 16.125V13.375H16.125C16.8813 13.375 17.5 12.7563 17.5 12C17.5 11.2437 16.8813 10.625 16.125 10.625ZM12 1C5.9225 1 1 5.9225 1 12C1 18.0775 5.9225 23 12 23C18.0775 23 23 18.0775 23 12C23 5.9225 18.0775 1 12 1ZM12 20.25C7.44875 20.25 3.75 16.5513 3.75 12C3.75 7.44875 7.44875 3.75 12 3.75C16.5513 3.75 20.25 7.44875 20.25 12C20.25 16.5513 16.565 20.25 12 20.25Z" fill="#1E2D3B"/>
</svg>
