<svg width="24" height="24" viewBox="0 0 24 24" fill="none" xmlns="http://www.w3.org/2000/svg">
<path d="M20.55 9.32857L13.05 1.47143C12.75 1.15714 12.45 1 12 1C11.55 1 11.25 1.15714 10.95 1.47143L3.45 9.32857C3.15 9.64286 3 9.95714 3 10.4286C3 11.3714 3.75 12 4.5 12C4.95 12 5.25 11.8429 5.55 11.5286L10.5 6.34286V21.4286C10.5 22.3714 11.1 23 12 23C12.9 23 13.5 22.3714 13.5 21.4286V6.34286L18.45 11.5286C18.75 11.8429 19.05 12 19.5 12C20.4 12 21 11.3714 21 10.4286C21 9.95714 20.85 9.64286 20.55 9.32857Z" fill="#1E2D3B"/>
</svg>
