<svg width="24" height="24" viewBox="0 0 24 24" fill="none" xmlns="http://www.w3.org/2000/svg">
<path d="M19.5 12C19.05 12 18.75 12.1571 18.45 12.4714L13.5 17.6571V2.57143C13.5 1.78571 12.9 1 12 1C11.1 1 10.5 1.78571 10.5 2.57143V17.6571L5.55 12.4714C5.25 12.1571 4.95 12 4.5 12C3.75 12 3 12.7857 3 13.5714C3 14.0429 3.15 14.3571 3.45 14.6714L10.95 22.5286C11.25 22.8429 11.55 23 12 23C12.45 23 12.75 22.8429 13.05 22.5286L20.55 14.6714C20.85 14.3571 21 14.0429 21 13.5714C21 12.6286 20.4 12 19.5 12Z" fill="#1E2D3B"/>
</svg>
