<svg width="24" height="24" viewBox="0 0 24 24" fill="none" xmlns="http://www.w3.org/2000/svg">
<path d="M7.5 10.5H16.5C17.325 10.5 18 9.825 18 9C18 8.58 17.835 8.205 17.565 7.935L13.065 3.435C12.795 3.165 12.42 3 12 3C11.58 3 11.205 3.165 10.935 3.435L6.435 7.935C6.165 8.205 6 8.58 6 9C6 9.825 6.675 10.5 7.5 10.5ZM16.5 13.5H7.5C6.675 13.5 6 14.175 6 15C6 15.42 6.165 15.795 6.435 16.065L10.935 20.565C11.205 20.835 11.58 21 12 21C12.42 21 12.795 20.835 13.065 20.565L17.565 16.065C17.835 15.795 18 15.42 18 15C18 14.175 17.325 13.5 16.5 13.5Z" fill="#1E2D3B"/>
</svg>
