<svg width="24" height="24" viewBox="0 0 24 24" fill="none" xmlns="http://www.w3.org/2000/svg">
<path d="M5.6 10.5714C6.048 10.5714 6.448 10.4143 6.736 10.1571L12 5.44286L17.264 10.1429C17.552 10.4143 17.952 10.5714 18.4 10.5714C19.28 10.5714 20 9.92857 20 9.14286C20 8.74286 19.824 8.38571 19.536 8.12857L13.136 2.41429C12.848 2.15714 12.448 2 12 2C11.552 2 11.152 2.15714 10.864 2.41429L4.464 8.12857C4.176 8.38571 4 8.74286 4 9.14286C4 9.92857 4.72 10.5714 5.6 10.5714ZM18.4 13.4286C17.952 13.4286 17.552 13.5857 17.264 13.8429L12 18.5571L6.736 13.8429C6.448 13.5857 6.048 13.4286 5.6 13.4286C4.72 13.4286 4 14.0714 4 14.8571C4 15.2571 4.176 15.6143 4.464 15.8714L10.864 21.5857C11.152 21.8429 11.552 22 12 22C12.448 22 12.848 21.8429 13.136 21.5857L19.536 15.8714C19.824 15.6143 20 15.2571 20 14.8571C20 14.0714 19.28 13.4286 18.4 13.4286Z" fill="#1E2D3B"/>
</svg>
