<svg width="24" height="24" viewBox="0 0 24 24" fill="none" xmlns="http://www.w3.org/2000/svg">
<path d="M12 1C5.9225 1 1 5.9225 1 12C1 18.0775 5.9225 23 12 23C18.0775 23 23 18.0775 23 12C23 5.9225 18.0775 1 12 1ZM19.1088 7.875H15.7537C15.465 6.34875 15.0525 5.08375 14.5025 4.17625C16.4688 4.80875 18.0913 6.1425 19.1088 7.875ZM14.75 12C14.75 13.0037 14.6812 13.9113 14.585 14.75H9.415C9.31875 13.9113 9.25 13.0037 9.25 12C9.25 10.9963 9.31875 10.0887 9.415 9.25H14.585C14.6812 10.0887 14.75 10.9963 14.75 12ZM12 3.75C12.9213 3.75 13.87 5.2625 14.3787 7.875H9.62125C10.13 5.2625 11.0788 3.75 12 3.75ZM9.4975 4.17625C8.9475 5.08375 8.52125 6.34875 8.24625 7.875H4.89125C5.90875 6.1425 7.53125 4.80875 9.4975 4.17625ZM3.75 12C3.75 11.0375 3.92875 10.1163 4.23125 9.25H8.02625C7.93 10.1025 7.875 11.01 7.875 12C7.875 12.99 7.93 13.8975 8.02625 14.75H4.23125C3.92875 13.8837 3.75 12.9625 3.75 12ZM4.89125 16.125H8.24625C8.535 17.6513 8.9475 18.9163 9.4975 19.8237C7.53125 19.1912 5.90875 17.8575 4.89125 16.125ZM12 20.25C11.0788 20.25 10.13 18.7375 9.62125 16.125H14.3787C13.87 18.7375 12.9213 20.25 12 20.25ZM14.5025 19.8237C15.0525 18.9163 15.465 17.6513 15.7537 16.125H19.1088C18.0913 17.8575 16.4688 19.1912 14.5025 19.8237ZM19.7687 14.75H15.9738C16.07 13.8975 16.125 12.99 16.125 12C16.125 11.01 16.07 10.1025 15.9738 9.25H19.7687C20.0712 10.1163 20.25 11.0375 20.25 12C20.25 12.9625 20.0712 13.8837 19.7687 14.75Z" fill="#1E2D3B"/>
</svg>
