<svg width="24" height="24" viewBox="0 0 24 24" fill="none" xmlns="http://www.w3.org/2000/svg">
<path d="M12 1C5.9225 1 1 5.9225 1 12C1 18.0775 5.9225 23 12 23C18.0775 23 23 18.0775 23 12C23 5.9225 18.0775 1 12 1ZM13.375 18.875H10.625V16.125H13.375V18.875ZM16.0288 9.91C15.8363 10.35 15.5475 10.79 15.1763 11.2437L13.7188 13.1412C13.5538 13.3475 13.3888 13.54 13.3337 13.7188C13.2787 13.8975 13.21 14.1313 13.21 14.4338V14.75H10.79V13.21C10.79 13.21 10.8587 12.5087 11.0787 12.2338L12.55 10.2537C12.8525 9.89625 13.0313 9.58 13.155 9.31875C13.2788 9.0575 13.32 8.79625 13.32 8.52125C13.32 8.10875 13.1825 7.765 12.935 7.49C12.6875 7.22875 12.33 7.105 11.89 7.105C11.4363 7.105 11.0787 7.2425 10.8175 7.50375C10.5563 7.765 10.3637 8.13625 10.2675 8.6175C10.2262 8.76875 10.13 8.82375 9.9925 8.81L7.655 8.46625C7.49 8.4525 7.435 8.35625 7.4625 8.205C7.6275 7.0775 8.095 6.18375 8.87875 5.5375C9.6625 4.8775 10.6938 4.5475 11.9725 4.5475C12.6187 4.5475 13.21 4.64375 13.7463 4.85C14.2825 5.05625 14.7362 5.3175 15.1213 5.66125C15.5063 6.005 15.795 6.4175 16.015 6.885C16.2213 7.36625 16.3175 7.875 16.3175 8.425C16.3175 8.975 16.2213 9.45625 16.0288 9.91Z" fill="#1E2D3B"/>
</svg>
