<svg width="24" height="24" viewBox="0 0 24 24" fill="none" xmlns="http://www.w3.org/2000/svg">
<path d="M2.375 6H21.625C22.3813 6 23 5.325 23 4.5C23 3.675 22.3813 3 21.625 3H2.375C1.61875 3 1 3.675 1 4.5C1 5.325 1.61875 6 2.375 6ZM21.625 18H2.375C1.61875 18 1 18.675 1 19.5C1 20.325 1.61875 21 2.375 21H21.625C22.3813 21 23 20.325 23 19.5C23 18.675 22.3813 18 21.625 18ZM21.625 10.5H2.375C1.61875 10.5 1 11.175 1 12C1 12.825 1.61875 13.5 2.375 13.5H21.625C22.3813 13.5 23 12.825 23 12C23 11.175 22.3813 10.5 21.625 10.5Z" fill="#1E2D3B"/>
</svg>
