<svg width="24" height="24" viewBox="0 0 24 24" fill="none" xmlns="http://www.w3.org/2000/svg">
<path d="M12 23C13.4143 23 14.5714 21.7625 14.5714 20.25H9.42857C9.42857 21.7625 10.5857 23 12 23ZM19.7143 16.125C19.0071 16.125 18.4286 15.5063 18.4286 14.75V9.25C18.4286 5.90875 16.2043 3.13125 13.26 2.5125C13.26 2.4575 13.2857 2.43 13.2857 2.375C13.2857 1.61875 12.7071 1 12 1C11.2929 1 10.7143 1.61875 10.7143 2.375C10.7143 2.43 10.74 2.4575 10.74 2.5125C7.79571 3.13125 5.57143 5.90875 5.57143 9.25V14.75C5.57143 15.5063 4.99286 16.125 4.28571 16.125C3.57857 16.125 3 16.7437 3 17.5C3 18.2563 3.57857 18.875 4.28571 18.875H19.7143C20.4214 18.875 21 18.2563 21 17.5C21 16.7437 20.4214 16.125 19.7143 16.125Z" fill="#1E2D3B"/>
</svg>
