<svg width="24" height="24" viewBox="0 0 24 24" fill="none" xmlns="http://www.w3.org/2000/svg">
<path d="M12 1C5.9225 1 1 5.9225 1 12C1 18.0775 5.9225 23 12 23C18.0775 23 23 18.0775 23 12C23 5.9225 18.0775 1 12 1ZM12 20.25C7.44875 20.25 3.75 16.5513 3.75 12C3.75 7.44875 7.44875 3.75 12 3.75C16.5513 3.75 20.25 7.44875 20.25 12C20.25 16.5513 16.5513 20.25 12 20.25ZM12 7.875C9.7175 7.875 7.875 9.7175 7.875 12C7.875 14.2825 9.7175 16.125 12 16.125C14.2825 16.125 16.125 14.2825 16.125 12C16.125 9.7175 14.2825 7.875 12 7.875Z" fill="#1E2D3B"/>
</svg>
