<svg width="24" height="24" viewBox="0 0 24 24" fill="none" xmlns="http://www.w3.org/2000/svg">
<path d="M22.395 19.48L18.7238 15.795C19.6863 14.2963 20.25 12.5225 20.25 10.625C20.25 5.30375 15.9462 1 10.625 1C5.30375 1 1 5.30375 1 10.625C1 15.9462 5.30375 20.25 10.625 20.25C12.5363 20.25 14.31 19.6725 15.795 18.7238L19.48 22.395C19.8513 22.7663 20.3738 23 20.9375 23C22.0788 23 23 22.0788 23 20.9375C23 20.3738 22.7663 19.8513 22.395 19.48ZM10.625 17.5C6.83 17.5 3.75 14.42 3.75 10.625C3.75 6.83 6.83 3.75 10.625 3.75C14.42 3.75 17.5 6.83 17.5 10.625C17.5 14.42 14.42 17.5 10.625 17.5Z" fill="#1E2D3B"/>
</svg>
