<svg width="24" height="24" viewBox="0 0 24 24" fill="none" xmlns="http://www.w3.org/2000/svg">
<path d="M11.681 6.77778L7.281 2.33333C7.083 2.13333 6.808 2.01111 6.5 2.01111C6.192 2.01111 5.917 2.13333 5.719 2.33333L1.319 6.77778C1.121 6.97778 1 7.25556 1 7.56667C1 8.17778 1.495 8.67778 2.1 8.67778C2.408 8.67778 2.683 8.55556 2.881 8.35556L5.4 5.8V20.8889C5.4 21.5 5.895 22 6.5 22C7.105 22 7.6 21.5 7.6 20.8889V5.8L10.119 8.34444C10.328 8.55556 10.603 8.67778 10.9 8.67778C11.505 8.67778 12 8.17778 12 7.56667C12 7.25556 11.879 6.97778 11.681 6.77778ZM12 5.31111V5.33333C12 5.33333 12 5.33333 12 5.31111C12 5.32222 12 5.32222 12 5.31111ZM12 18.6889C12 18.6778 12 18.6778 12 18.6889C12 18.6667 12 18.6667 12 18.6667V18.6889ZM21.9 15.3222C21.592 15.3222 21.317 15.4444 21.119 15.6444L18.6 18.2V3.11111C18.6 2.5 18.105 2 17.5 2C16.895 2 16.4 2.5 16.4 3.11111V18.2L13.881 15.6556C13.683 15.4556 13.408 15.3333 13.1 15.3333C12.495 15.3333 12 15.8333 12 16.4444C12 16.7556 12.121 17.0333 12.319 17.2333L16.719 21.6778C16.917 21.8778 17.192 22 17.5 22C17.808 22 18.083 21.8778 18.281 21.6778L22.681 17.2333C22.879 17.0333 23 16.7556 23 16.4444C23 15.8222 22.505 15.3222 21.9 15.3222Z" fill="black"/>
</svg>
