<svg width="24" height="24" viewBox="0 0 24 24" fill="none" xmlns="http://www.w3.org/2000/svg">
<path d="M12 1C5.9225 1 1 5.9225 1 12C1 18.0775 5.9225 23 12 23C18.0775 23 23 18.0775 23 12C23 5.9225 18.0775 1 12 1ZM16.125 12C15.74 12 15.3962 11.8488 15.1487 11.6013L13.375 9.81375V17.5C13.375 18.2563 12.7563 18.875 12 18.875C11.2438 18.875 10.625 18.2563 10.625 17.5V9.81375L8.85125 11.6013C8.60375 11.8488 8.26 12 7.875 12C7.11875 12 6.5 11.3813 6.5 10.625C6.5 10.24 6.65125 9.89625 6.89875 9.64875L11.0237 5.52375C11.2712 5.27625 11.615 5.125 12 5.125C12.385 5.125 12.7288 5.27625 12.9763 5.52375L17.1013 9.64875C17.3488 9.89625 17.5 10.24 17.5 10.625C17.5 11.3813 16.8813 12 16.125 12Z" fill="#1E2D3B"/>
</svg>
