<?xml version="1.0" encoding="UTF-8"?>
<svg width="170px" height="50px" viewBox="0 0 170 50" version="1.1" xmlns="http://www.w3.org/2000/svg" xmlns:xlink="http://www.w3.org/1999/xlink">
    <!-- Generator: Sketch 64 (93537) - https://sketch.com -->
    <title>bitgo-logo</title>
    <desc>Created with Sketch.</desc>
    <g id="bitgo-logo" stroke="none" stroke-width="1" fill="none" fill-rule="evenodd">
        <rect id="Rectangle" x="0" y="0" width="170" height="50"></rect>
        <g id="bitGo" transform="translate(1.000000, 5.000000)" fill-rule="nonzero">
            <g id="g10" transform="translate(17.000000, 19.000000) scale(-1, 1) rotate(-180.000000) translate(-17.000000, -19.000000) translate(0.000000, -0.000000)">
                <g id="g12" transform="translate(-0.000000, 0.000000)">
                    <g id="g14-Clipped">
                        <g id="g14" transform="translate(0.136460, 0.066799)">
                            <g id="g20" transform="translate(0.030677, 0.179347)" fill="#62ABF4">
                                <path d="M15.8296089,0 C15.8296089,0 31.5451355,5.23691127 31.5451355,24.4589595 L31.5451355,31.3773791 C31.5451355,32.1311587 30.9457937,32.7419847 30.1895205,32.7943565 C27.3350053,32.9247516 20.5694851,33.4944283 15.8296089,35.9810193 C11.0897327,33.4944283 4.32421248,32.9247516 1.46969731,32.7943565 C0.713424098,32.7419847 0.114082354,32.1311587 0.114082354,31.3773791 L0.114082354,24.4589595 C0.114082354,5.23691127 15.8296089,0 15.8296089,0" id="path22"></path>
                            </g>
                            <g id="g24" transform="translate(9.004700, 8.783710)" fill="#FFFFFF">
                                <path d="M9.8252745,12.5585402 C9.81026366,10.5561211 6.63533538,10.8121015 5.6132339,10.8190488 L5.60559202,14.3581523 C6.62742057,14.351205 9.84028533,14.6472659 9.8252745,12.5585402 M10.6276719,7.04747868 C10.612934,4.84652771 6.80045457,5.12335 5.57338696,5.13083168 L5.56683678,9.03279684 C6.79445024,9.02424635 10.6443203,9.34275231 10.6276719,7.04747868 M13.2062606,13.3275504 C13.0152136,15.428033 11.1787061,16.1446714 8.8432929,16.3611059 L8.85448279,19.2952618 L7.04390304,19.2856425 L7.05045322,16.4503517 C6.57420034,16.4535581 6.06110267,16.4479468 5.57775375,16.441534 L5.57966422,19.3145004 L3.75516533,19.3080876 L3.76744692,16.3971783 C3.37525471,16.3918342 0.117903294,16.3843525 0.117903294,16.3843525 L0.114628202,14.5238181 L2.43284714,14.5272918 L2.42547818,5.16877451 L0.39683192,5.15781918 L0.380456462,3.02500497 C0.380456462,3.02500497 3.24779907,3.03729631 3.67137757,3.03168505 L3.67792775,0.0865737665 L5.47131327,0.0772216621 L5.48031977,2.98786376 C5.97676906,2.97423641 6.45738874,2.96702192 6.9265456,2.96408269 L6.91972249,0.06359431 L8.74422138,0.0643959189 L8.73712535,2.9913374 C11.7818687,3.14123827 13.9177742,3.87711529 14.2024343,6.67366171 C14.4322365,8.92538125 13.3571878,9.93834775 11.6323062,10.3565204 C12.6855211,10.8727566 13.3484542,11.7903316 13.2059877,13.3275504 L13.2062606,13.3275504 Z" id="path26"></path>
                            </g>
                        </g>
                    </g>
                </g>
            </g>
        </g>
    </g>
</svg>
