<svg width="24" height="24" viewBox="0 0 24 24" fill="none" xmlns="http://www.w3.org/2000/svg">
<path d="M21.414 10.5H6.37045L11.5368 5.565C11.8194 5.295 11.9921 4.92 11.9921 4.5C11.9921 3.675 11.2855 3 10.4218 3C9.98216 3 9.58958 3.165 9.30692 3.435L1.45539 10.935C1.17273 11.22 1 11.595 1 12C1 12.405 1.17273 12.795 1.45539 13.065L9.30692 20.565C9.58958 20.835 9.98216 21 10.4218 21C11.2855 21 11.9921 20.325 11.9921 19.5C11.9921 19.08 11.8194 18.705 11.5368 18.435L6.37045 13.5H21.4297C22.2934 13.5 23 12.825 23 12C23 11.175 22.2777 10.5 21.414 10.5Z" fill="#1E2D3B"/>
</svg>
