<svg width="24" height="24" viewBox="0 0 24 24" fill="none" xmlns="http://www.w3.org/2000/svg">
<path d="M22.5289 10.95L14.6774 3.45C14.3947 3.165 14.0021 3 13.5625 3C12.6988 3 11.9921 3.675 11.9921 4.5C11.9921 4.92 12.1649 5.295 12.4475 5.565L17.6138 10.5H2.57031C1.70664 10.5 1 11.175 1 12C1 12.825 1.70664 13.5 2.57031 13.5H17.6296L12.4632 18.435C12.1806 18.705 12.0079 19.08 12.0079 19.5C12.0079 20.325 12.7145 21 13.5782 21C14.0178 21 14.4104 20.835 14.6931 20.565L22.5446 13.065C22.8273 12.795 23 12.42 23 12C23 11.58 22.8116 11.22 22.5289 10.95Z" fill="#1E2D3B"/>
</svg>
