<svg width="24" height="24" viewBox="0 0 24 24" fill="none" xmlns="http://www.w3.org/2000/svg">
<path d="M20.565 10.935L16.065 6.435C15.795 6.165 15.42 6 15 6C14.175 6 13.5 6.675 13.5 7.5V16.5C13.5 17.325 14.175 18 15 18C15.42 18 15.795 17.835 16.065 17.565L20.565 13.065C20.835 12.795 21 12.42 21 12C21 11.58 20.835 11.205 20.565 10.935ZM9 6C8.58 6 8.205 6.165 7.935 6.435L3.435 10.935C3.165 11.205 3 11.58 3 12C3 12.42 3.165 12.795 3.435 13.065L7.935 17.565C8.205 17.835 8.58 18 9 18C9.825 18 10.5 17.325 10.5 16.5V7.5C10.5 6.675 9.825 6 9 6Z" fill="#1E2D3B"/>
</svg>
