<svg width="24" height="24" viewBox="0 0 24 24" fill="none" xmlns="http://www.w3.org/2000/svg">
<path d="M12 1C5.9225 1 1 5.9225 1 12C1 18.0775 5.9225 23 12 23C18.0775 23 23 18.0775 23 12C23 5.9225 18.0775 1 12 1ZM17.1012 14.3513L12.9763 18.4762C12.7288 18.7237 12.385 18.875 12 18.875C11.615 18.875 11.2713 18.7237 11.0238 18.4762L6.89875 14.3513C6.65125 14.1038 6.5 13.76 6.5 13.375C6.5 12.6187 7.11875 12 7.875 12C8.26 12 8.60375 12.1512 8.85125 12.3987L10.625 14.1725V6.5C10.625 5.74375 11.2437 5.125 12 5.125C12.7563 5.125 13.375 5.74375 13.375 6.5V14.1863L15.1487 12.4125C15.3962 12.165 15.74 12.0138 16.125 12.0138C16.8813 12.0138 17.5 12.6325 17.5 13.3888C17.5 13.76 17.3487 14.1038 17.1012 14.3513Z" fill="#1E2D3B"/>
</svg>
