<svg width="24" height="24" viewBox="0 0 24 24" fill="none" xmlns="http://www.w3.org/2000/svg">
<path d="M11.9794 1C18.0455 1 22.9588 5.91943 23 11.9794C23 12.3504 22.9725 12.6939 22.9451 13.0512C22.9314 13.1886 22.9039 13.3123 22.8902 13.436C22.8628 13.6558 22.8353 13.862 22.7941 14.0818C22.7667 14.2467 22.7255 14.3979 22.6843 14.549C22.6432 14.7277 22.602 14.8926 22.5471 15.0712C22.4922 15.2498 22.4373 15.4147 22.3824 15.5796C22.3275 15.7308 22.2726 15.8819 22.2177 16.0194C22.1354 16.198 22.0667 16.3766 21.9844 16.5553C21.9295 16.679 21.8746 16.8026 21.8197 16.9126C21.7236 17.1049 21.6276 17.2973 21.5178 17.476C21.4629 17.5721 21.408 17.6546 21.3531 17.7508C21.2296 17.9432 21.1061 18.1355 20.9688 18.3279C20.9276 18.3966 20.8865 18.4516 20.8453 18.5066C19.5415 20.2792 17.7162 21.6396 15.5889 22.3816C15.5614 22.3954 15.534 22.4091 15.4928 22.4229C14.985 22.6015 14.4635 22.7252 13.9283 22.8214C13.8322 22.8351 13.7498 22.8488 13.6538 22.8626C13.1185 22.945 12.5696 23 12.0069 23C11.4442 23 10.8952 22.945 10.36 22.8626C10.2639 22.8488 10.1815 22.8351 10.0855 22.8214C9.55022 22.7252 9.0287 22.5878 8.5209 22.4229C8.49345 22.4091 8.466 22.3954 8.42483 22.3816C6.29757 21.6533 4.47224 20.2792 3.16843 18.5066C3.12726 18.4516 3.07236 18.3829 3.03119 18.3279C2.90767 18.1355 2.78415 17.9432 2.66064 17.7508C2.60574 17.6546 2.55084 17.5721 2.49595 17.476C2.38615 17.2973 2.29008 17.1187 2.19401 16.9263C2.12539 16.8026 2.07049 16.6927 2.0156 16.569C1.93325 16.3904 1.8509 16.2117 1.78228 16.0331C1.72739 15.8819 1.67249 15.7445 1.61759 15.5934C1.56269 15.4285 1.5078 15.2498 1.4529 15.0849C1.398 14.92 1.35683 14.7414 1.31566 14.5628C1.27449 14.3979 1.23331 14.2467 1.20586 14.0956C1.16469 13.8757 1.13724 13.6558 1.10979 13.4497C1.09607 13.3123 1.06862 13.1886 1.0549 13.065C1.01372 12.7077 1 12.3504 1 11.9931C1 5.91943 5.91329 1 11.9794 1ZM11.9794 20.7876C14.6968 20.7876 17.126 19.5509 18.7455 17.6134C17.826 17.1324 16.7006 16.7064 15.8085 16.3079C14.2027 15.5934 14.4223 15.1537 14.3674 14.5628C14.3674 14.4803 14.3537 14.3841 14.3537 14.3017C14.9027 13.807 15.3556 13.1337 15.6438 12.3504C15.6438 12.3504 15.6575 12.3092 15.6575 12.2954C15.7261 12.1305 15.781 11.9519 15.8222 11.7733C16.1928 11.7046 16.3986 11.2923 16.481 10.9213C16.5633 10.7701 16.7417 10.3991 16.7006 9.97314C16.6457 9.42348 16.4398 9.17614 16.1928 9.06621C16.1928 9.03873 16.1928 8.9975 16.1928 8.97002C16.1928 8.26921 16.1241 7.26608 16.0006 6.6065C15.9732 6.41412 15.932 6.23548 15.8771 6.05684C15.6438 5.2461 15.1497 4.5178 14.491 4.00937C13.8047 3.47345 12.844 3.19863 11.9931 3.19863C11.1285 3.19863 10.1678 3.4872 9.49532 4.00937C8.83656 4.5178 8.34248 5.2461 8.10917 6.05684C8.05427 6.23548 8.0131 6.41412 7.98565 6.59275C7.86213 7.25234 7.79351 8.25547 7.79351 8.95628C7.79351 8.98376 7.79351 9.01124 7.79351 9.03873C7.54648 9.14866 7.32689 9.396 7.27199 9.9594C7.23082 10.3854 7.39551 10.7564 7.47785 10.9076C7.5602 11.2923 7.77979 11.7046 8.16407 11.7733C8.20524 11.9519 8.26014 12.1305 8.32876 12.3092C8.32876 12.3092 8.34248 12.3229 8.34248 12.3367V12.3504C8.64442 13.1474 9.09732 13.8345 9.66001 14.3292C9.66001 14.4116 9.66001 14.4803 9.64629 14.5628C9.59139 15.1537 9.75608 15.5934 8.16407 16.3079C7.27199 16.7064 6.1466 17.1187 5.22707 17.6134C6.83281 19.5509 9.26201 20.7876 11.9794 20.7876Z" fill="#1E2D3B"/>
</svg>
