<svg width="24" height="24" viewBox="0 0 24 24" fill="none" xmlns="http://www.w3.org/2000/svg">
<path d="M12 23C5.9225 23 1 18.0775 1 12C1 5.9225 5.9225 1 12 1C18.0775 1 23 5.9225 23 12C23 18.0775 18.0775 23 12 23ZM17.5 7.875C17.115 7.875 16.7712 8.02625 16.5238 8.27375L10.625 14.1863L7.47625 11.0237C7.22875 10.7762 6.885 10.625 6.5 10.625C5.74375 10.625 5.125 11.2438 5.125 12C5.125 12.385 5.27625 12.7288 5.52375 12.9763L9.64875 17.1013C9.89625 17.3488 10.24 17.5 10.625 17.5C11.01 17.5 11.3538 17.3488 11.6013 17.1013L18.4763 10.2263C18.7238 9.97875 18.875 9.635 18.875 9.25C18.875 8.49375 18.2563 7.875 17.5 7.875Z" fill="#1E2D3B"/>
</svg>
