<svg width="24" height="24" viewBox="0 0 24 24" fill="none" xmlns="http://www.w3.org/2000/svg">
<path d="M22.7938 18.9643L22.8075 18.9507L13.1825 2.665L13.1688 2.67857C12.935 2.27143 12.5087 2 12 2C11.4913 2 11.0788 2.27143 10.8313 2.67857L10.8175 2.665L1.1925 18.9507L1.20625 18.9643C1.0825 19.1679 1 19.385 1 19.6429C1 20.3893 1.61875 21 2.375 21H21.625C22.3813 21 23 20.3893 23 19.6429C23 19.385 22.9175 19.1679 22.7938 18.9643ZM13.375 18.2721H10.625V15.5579H13.375V18.2721ZM13.375 14.2007H10.625V7.415H13.375V14.2007Z" fill="#1E2D3B"/>
</svg>
